<svg enable-background="new 0 0 1000 1000" viewBox="0 0 1000 1000" xmlns="http://www.w3.org/2000/svg" fill="#f40"><path d="m2010.3 4681.4c-209.4-68.9-462.2-188.9-551.5-265.5-155.8-132.8-311.5-487.7-342.1-789-40.9-362.6-232.4-625.6-681.7-934.5-306.5-209.4-362.7-273.2-324.4-372.8 20.4-56.2 309-56.2 497.9 0 240 71.5 561.7 214.5 801.7 357.5l232.4 137.9 201.7-38.3c217-43.4 247.7-66.4 224.7-166-17.9-84.3-51.1-109.8-324.3-245.1-291.1-143-737.9-457-985.6-692-209.4-196.6-286-319.2-446.8-709.8-120-291.1-140.4-536.2-76.6-947.3 46-311.5 112.3-477.5 278.3-709.8 204.3-286 487.7-505.6 1126-870.7 140.4-79.1 337-206.8 434.1-283.4 214.5-163.4 789-459.6 1072.4-554 112.3-38.3 365.1-104.7 561.7-148.1s360-79.1 362.6-81.7c2.5-5.1-53.6-173.6-122.6-375.4-71.5-204.3-143-411.1-158.3-459.6s-40.9-97-56.2-107.2c-12.8-10.2-293.6-20.4-620.4-20.4-480 0-612.8-7.6-689.4-40.8-81.7-33.2-89.4-43.4-48.5-63.8 53.6-30.6 33.2-74.1-35.7-74.1-63.8 0-201.7-68.9-201.7-99.6 0-12.8 89.4-30.6 199.2-40.8 257.9-23 589.8-81.7 771.1-140.4 79.2-25.5 176.2-40.8 219.6-35.8l74 10.2-76.6-25.5c-40.9-15.3-178.7-43.4-303.8-63.8s-232.4-43.4-240-51.1c-30.6-28.1 58.7-89.4 132.8-89.4 43.4 0 120-20.4 168.5-45.9 68.9-33.2 86.8-56.2 81.7-99.6-10.2-71.5-48.5-71.5 556.6 5.1 360 43.4 561.7 84.3 725.1 137.9 135.3 48.5 250.2 71.5 286 63.8 48.5-12.8 61.3-5.1 61.3 35.8 0 97 28.1 132.8 107.2 132.8 76.6 0 76.6 2.5 61.3 109.8-23 143 25.5 572 74 691.9 23 53.6 66.4 194 99.6 314.1l56.2 217 291.1-2.6c160.9-2.6 298.8-10.2 311.5-17.9 46-30.6 674.1 46 847.7 102.1 99.6 33.2 232.3 68.9 296.2 79.1 255.3 38.3 837.5 166 942.2 201.7 186.4 66.4 275.8 137.9 416.2 326.8 148.1 199.1 199.2 237.4 658.8 505.5 321.7 186.4 497.9 255.3 666.4 255.3 84.3 0 278.3 61.3 278.3 86.8 0 7.7-109.8 35.8-242.6 66.4-132.8 33.2-234.9 66.4-227.3 79.2 17.9 30.6 130.2 28.1 237.5-2.6l86.8-25.5-74 79.2c-40.9 40.9-242.6 163.4-449.4 268.1l-375.3 188.9-81.9 155.8c-145.6 270.7-265.6 380.4-771.1 689.4-255.3 155.8-523.4 339.6-594.9 408.5-89.4 84.3-232.4 171.1-446.8 275.8-314.1 150.6-503 214.5-1555 526-301.3 89.4-582.1 173.6-623 188.9-109.8 43.4-497.9 99.6-909 130.2-201.7 15.3-380.4 38.3-393.2 51.1-17.9 17.9-15.3 53.6 7.7 109.8 17.9 43.4 48.5 201.7 68.9 349.8 17.9 148.1 51.1 337 74 421.3 79.2 319.2 28.1 847.7-104.7 1075-91.9 158.3-485.1 566.8-658.8 686.8-176.2 120-444.3 217-597.5 214.5-66.3-.1-183.7-20.5-260.3-46zm2772.9-7412.3c-7.7-33.2-20.4-158.3-28.1-280.9-17.9-255.3-56.2-403.4-181.3-684.3-48.5-109.8-86.8-232.3-86.8-273.2v-74.1l-347.3 7.7c-191.5 2.5-354.9 10.2-360 17.9-7.7 5.1 33.2 35.8 86.8 63.8 56.2 28.1 145.5 104.7 199.2 168.5 76.6 94.5 109.8 117.4 155.8 107.3 71.5-12.8 71.5-28.1 20.4 211.9-43.4 209.4-38.3 270.7 46 579.6l58.7 211.9h224.7c217 .1 222.1-2.5 211.9-56.1z" transform="matrix(.1 0 0 -.1 0 511)"/></svg>